HIERARCHY
ROOT Hips
{
  OFFSET -33.9132 29.2015 117.021
  CHANNELS 6 Xposition Yposition Zposition Zrotation Xrotation Yrotation
  JOINT LeftUpLeg
  {
    OFFSET 8.64259 1.95398 -2.38835
    CHANNELS 3 Zrotation Xrotation Yrotation
    JOINT LeftLeg
    {
      OFFSET 43.7702 0 0
      CHANNELS 3 Zrotation Xrotation Yrotation
      JOINT LeftFoot
      {
        OFFSET 40.6238 0 0
        CHANNELS 3 Zrotation Xrotation Yrotation
        JOINT LeftToeBase
        {
          OFFSET 12.7242 0 0
          CHANNELS 3 Zrotation Xrotation Yrotation
          End Site
          {
            OFFSET 0 0 0
          }
        }
      }
    }
  }
  JOINT RightUpLeg
  {
    OFFSET -8.2249 1.95398 -2.59336
    CHANNELS 3 Zrotation Xrotation Yrotation
    JOINT RightLeg
    {
      OFFSET 43.5653 0 0
      CHANNELS 3 Zrotation Xrotation Yrotation
      JOINT RightFoot
      {
        OFFSET 40.6238 0 0
        CHANNELS 3 Zrotation Xrotation Yrotation
        JOINT RightToeBase
        {
          OFFSET 12.7242 0 0
          CHANNELS 3 Zrotation Xrotation Yrotation
          End Site
          {
            OFFSET 0 0 0
          }
        }
      }
    }
  }
  JOINT Spine
  {
    OFFSET 0.165834 0.87714 6.61349
    CHANNELS 3 Zrotation Xrotation Yrotation
    JOINT Spine1
    {
      OFFSET 7.38963 1.71661e-005 0
      CHANNELS 3 Zrotation Xrotation Yrotation
      JOINT Spine2
      {
        OFFSET 11.9445 1.14441e-005 0
        CHANNELS 3 Zrotation Xrotation Yrotation
        JOINT Spine3
        {
          OFFSET 14.7254 4.19617e-005 0
          CHANNELS 3 Zrotation Xrotation Yrotation
          JOINT Spine4
          {
            OFFSET 10.9679 0 0
            CHANNELS 3 Zrotation Xrotation Yrotation
            JOINT RightShoulder
            {
              OFFSET 2.46616 -1.6653 3.69651
              CHANNELS 3 Zrotation Xrotation Yrotation
              JOINT RightArm
              {
                OFFSET 13.0012 0 0
                CHANNELS 3 Zrotation Xrotation Yrotation
                JOINT RightForeArm
                {
                  OFFSET 28.7848 1.62311e-005 0
                  CHANNELS 3 Zrotation Xrotation Yrotation
                  JOINT RightHand
                  {
                    OFFSET 26.5688 1.62095e-005 0
                    CHANNELS 3 Zrotation Xrotation Yrotation
                    End Site
                    {
                      OFFSET 0 0 0
                    }
                  }
                }
              }
            }
            JOINT LeftShoulder
            {
              OFFSET 2.38034 -1.29275 -3.7523
              CHANNELS 3 Zrotation Xrotation Yrotation
              JOINT LeftArm
              {
                OFFSET 16.3182 6.07031e-005 0
                CHANNELS 3 Zrotation Xrotation Yrotation
                JOINT LeftForeArm
                {
                  OFFSET 27.0901 0 0
                  CHANNELS 3 Zrotation Xrotation Yrotation
                  JOINT LeftHand
                  {
                    OFFSET 24.5451 1.51738e-005 0
                    CHANNELS 3 Zrotation Xrotation Yrotation
                    End Site
                    {
                      OFFSET 0 0 0
                    }
                  }
                }
              }
            }
            JOINT Neck
            {
              OFFSET 5.0226 -0.0266342 0
              CHANNELS 3 Zrotation Xrotation Yrotation
              JOINT Head
              {
                OFFSET 6.69364 2.86102e-005 0
                CHANNELS 3 Zrotation Xrotation Yrotation
                End Site
                {
                  OFFSET 0 0 0
                }
              }
            }
          }
        }
      }
    }
  }
}
MOTION
Frames:	15
Frame Time:	0.0416667
30.4501 100.882 16.1206 6.09477 -86.5648 6.9283 -174.711 8.56422 93.3169 -11.2949 0.828803 0.313283 67.4749 1.02389 -5.49972 18.6738 -8.9602 7.48717 175.158 3.6742 91.911 -4.22545 0.421662 1.83917 63.7854 -1.2487 1.71959 25.7727 0.305657 3.91459 0.536062 5.97592 -89.7405 14.9209 1.18951 0.346122 3.25044 1.20359 0.29341 -19.2878 1.03049 0.687643 0.724827 1.03049 0.687639 102.532 24.5226 -75.7123 -1.6104 37.2301 -55.3298 0.639638 57.0414 -7.3761 20.323 -2.39912 -17.8703 -77.3776 17.6924 99.0187 -21.4437 -47.1475 -106.104 4.41046 -74.7908 0.0229395 -25.1187 -3.0896 1.89734 34.2148 -3.3964 -5.80886 -13.1413 -0.478511 -1.93779 
30.2221 100.807 14.9513 5.18204 -85.7375 5.76011 -174.976 10.4181 93.0571 -11.8971 0.740223 0.255027 67.2579 0.830032 -5.46811 18.7286 -9.9256 9.20273 174.865 5.40125 91.7156 -4.5555 0.374253 2.27456 63.8883 -1.40771 1.2566 25.484 0.378991 4.08961 0.535526 6.08148 -89.8406 14.7109 1.13889 0.155384 3.04041 1.14464 0.105095 -19.4981 1.03953 0.490518 0.514515 1.03954 0.490518 102.492 24.2468 -77.2276 -3.02981 37.8606 -53.4121 0.83955 58.2833 -7.55187 20.7726 -3.01361 -20.7653 -77.891 15.8012 95.8158 -20.5996 -48.6241 -99.9521 4.18636 -73.093 0.0844373 -27.7454 -2.61332 -0.743632 29.2329 -3.19464 -6.02681 -9.8546 -0.607112 -1.01806 
29.9761 100.778 13.9005 8.60989 -85.1843 8.83256 -174.994 11.9279 92.8528 -12.3932 0.948904 -0.0797221 66.8681 1.03088 -5.23759 18.4821 -10.0264 9.11625 174.53 6.88175 91.3421 -5.13345 0.822742 2.61737 63.7224 -1.18809 1.39608 26.6586 -0.110426 4.07595 0.421814 6.22196 -89.9444 14.4304 0.862766 -0.0100216 2.75971 0.861486 -0.04799 -19.7776 0.825891 0.249759 0.235056 0.825885 0.249749 102.511 21.1516 -78.6328 -3.19277 37.9938 -55.6708 -1.42985 57.921 -4.88549 21.83 -4.62688 -27.8168 -77.3024 7.74414 98.4937 -27.727 -43.546 -107.642 4.00333 -65.3867 0.12306 -29.4309 -1.46627 -5.14685 21.7884 -3.04047 -6.17952 -5.62924 -0.887562 -0.930422 
29.6992 100.773 12.7848 10.4973 -85.0308 10.5888 -174.687 13.2012 92.9843 -13.0534 1.61034 -0.642935 66.5319 1.53901 -4.90499 17.6945 -10.3606 8.86261 174.593 8.25349 91.4387 -6.26007 1.35141 2.67069 63.8162 -1.28839 1.63796 25.4929 0.490721 3.68024 0.398109 6.49224 -90.1122 13.8911 0.7344 -0.324433 2.2203 0.719411 -0.356445 -20.3165 0.797953 -0.0887033 -0.303862 0.797947 -0.0887086 102.283 16.8474 -82.309 1.53606 40.8425 -48.2592 17.0279 46.376 -29.7382 15.9453 -4.10992 -32.6258 -77.7332 0.116431 96.843 -32.7226 -38.5107 -105.431 -6.20909 -55.8329 -10.614 -32.0209 0.837898 -12.6767 16.5974 -2.96263 -4.48623 -5.15276 -1.56136 -1.48656 
29.5153 100.725 11.5366 15.4466 -84.8489 14.9232 -174.348 14.2883 92.6751 -13.3907 2.34439 -1.42281 66.124 2.27139 -4.66556 17.853 -10.3861 9.06866 174.275 10.6868 90.9861 -9.26821 2.02441 2.81611 64.8356 -1.41072 2.36854 23.1138 1.36469 4.14955 0.368701 6.80473 -90.1259 13.2655 0.670933 -0.336296 1.59466 0.655488 -0.365508 -20.9418 0.740976 -0.119106 -0.929173 0.740984 -0.119101 102.342 11.3833 -81.5775 14.8634 39.2319 -36.868 25.0936 20.3242 -59.6708 5.32715 -1.66693 -35.8912 -79.303 -6.95966 92.3049 -37.1609 -32.3521 -98.1178 -12.4711 -41.0002 -19.1558 -37.1267 5.26175 -24.1617 11.075 -3.0502 -5.18692 -4.02637 -1.75796 -0.0318564 
29.4358 100.65 10.1596 13.5081 -84.0507 12.7846 -174.183 16.071 92.4552 -13.8013 2.61123 -1.94205 65.9013 3.02869 -4.35891 18.1428 -9.69356 8.20051 173.767 12.9654 90.7797 -10.4164 0.926933 3.46116 64.525 -1.49406 1.77689 23.3115 1.52383 3.34048 0.241155 7.16353 -90.3416 12.5467 0.31648 -0.717122 0.875573 0.28461 -0.730358 -21.6587 0.517369 -0.588848 -1.64607 0.517365 -0.588859 100.915 1.7054 -87.9844 20.9697 39.0774 -22.6957 16.802 6.20622 -80.1098 5.41895 -1.93189 -40.1195 -81.4475 -17.9164 88.1191 -32.4787 -29.5344 -82.4388 -17.2104 -28.7931 -27.1458 -34.6311 8.05419 -33.7323 9.06366 -1.4329 -2.04904 -6.44966 -0.931995 -1.20907 
29.4643 100.241 8.76977 8.49168 -82.2921 7.39729 -173.924 19.5018 91.9493 -15.7574 3.05159 -2.73979 67.8182 4.77102 -3.40832 17.9874 -9.73382 8.10902 173.446 17.1639 90.4549 -13.13 0.554885 3.86608 65.0789 -1.79877 1.39342 25.0593 0.658206 3.72983 0.27649 7.65355 -90.4382 11.5682 0.344883 -0.912651 -0.103074 0.304389 -0.926962 -22.6367 0.603227 -0.766817 -2.62408 0.603222 -0.766834 99.3486 -4.10841 -91.9973 23.3025 33.0202 -2.45211 10.1441 -2.0152 -92.7905 4.90454 -2.23243 -48.288 -84.2594 -26.8364 83.7328 -25.789 -25.6439 -67.0054 -16.3197 -17.22 -31.5308 -31.7397 10.4009 -43.927 8.67793 -1.24094 -3.19896 -8.87565 -0.596222 1.22676 
29.6031 99.615 7.34701 0.00185142 -79.6379 -1.59253 -173.366 24.2804 91.4649 -18.5662 2.54028 -3.69425 69.5404 6.06045 -3.16826 18.3046 -9.76291 8.48145 172.929 23.4292 90.256 -17.8094 -0.888739 4.55515 65.9153 -2.32305 1.33123 25.5101 0.354476 4.14207 0.24773 8.09317 -90.4761 10.6876 0.27409 -0.970291 -0.983635 0.231136 -0.981404 -23.5167 0.553025 -0.843074 -3.50405 0.553022 -0.843069 97.0445 -11.8382 -96.904 23.9771 25.6229 9.22085 2.85729 -0.705829 -97.7035 3.53138 -1.84924 -52.5071 -86.8755 -35.248 80.5806 -14.0159 -20.8247 -51.9673 -17.085 -13.7081 -34.0646 -28.9474 10.2282 -46.9254 10.09 -0.393958 -2.81915 -12.0545 0.120947 1.66839 
29.791 98.7167 5.92805 -5.96669 -76.2068 -7.70522 -172.078 30.8701 91.3133 -23.4226 2.25538 -4.97501 69.908 6.00274 -3.0679 16.1585 -10.0296 6.77392 172.248 30.7489 90.7399 -23.1338 -3.391 5.57368 66.9663 -3.44735 0.514648 21.3154 1.85579 5.01346 0.205134 8.57789 -90.5235 9.71776 0.172163 -1.05187 -1.95361 0.125706 -1.05843 -24.4859 0.480316 -0.951506 -4.47329 0.480314 -0.951516 93.9802 -17.7669 -102.8 24.5489 20.2581 10.0043 2.11274 -0.128668 -90.7257 4.70201 -2.29612 -51.244 -89.1002 -41.3379 78.1773 -6.52469 -16.5501 -43.1145 -17.0707 -13.3139 -30.7919 -28.5866 10.4809 -48.3437 11.8354 0.401855 -2.0644 -12.3043 0.741174 1.83719 
30.1351 97.1232 4.53062 -10.6536 -72.3898 -12.242 -170.049 38.9708 91.2484 -30.3891 2.76571 -6.5079 70.4207 6.15644 -3.49556 17.0188 -10.4946 8.40229 170.102 38.8887 91.7225 -29.5042 -7.79837 7.74657 68.2849 -4.84712 -0.822701 19.3775 2.44409 5.68659 0.280003 9.1267 -90.4921 8.621 0.340749 -0.995018 -3.05029 0.296625 -1.00905 -25.5834 0.624024 -0.846626 -5.57078 0.624027 -0.846624 92.74 -20.4848 -104.656 25.991 14.3303 -3.76321 3.10638 2.0241 -72.5519 6.42852 -2.73515 -46.8917 -90.2456 -41.3987 76.2981 -6.43248 -14.8625 -43.4354 -14.9293 -11.1477 -22.408 -27.941 10.5381 -49.3909 13.459 0.694452 -1.86454 -10.9944 1.03385 1.72507 
30.4647 94.6917 3.07512 -10.9766 -68.0855 -12.327 -165.904 48.5201 90.1574 -38.7845 5.44552 -8.7184 73.3888 8.1161 -2.78538 14.5702 -11.3028 7.27826 164.599 48.2022 94.5109 -37.0195 -12.9681 10.729 69.7982 -6.66786 -2.5151 18.1557 2.27768 7.60509 0.440773 9.50243 -90.415 7.87097 0.698762 -0.857781 -3.8001 0.660337 -0.887707 -26.3355 0.924247 -0.608118 -6.32282 0.924249 -0.608126 90.874 -19.2032 -109.65 25.143 14.6335 -21.467 -1.40325 2.07976 -43.0483 9.45574 -4.15251 -49.583 -90.8489 -37.7495 74.2536 -10.7332 -15.705 -50.1307 -11.8295 -5.39568 -12.9006 -22.7914 8.00074 -47.65 14.5572 0.455899 -2.5591 -9.27253 1.00719 2.07511 
30.8334 91.2479 1.63476 -6.97781 -64.0593 -9.27861 -158.202 58.1377 84.2461 -47.7441 10.166 -10.6782 76.2053 10.2591 -2.00531 13.5405 -12.1856 7.66527 154.894 58.3793 99.701 -46.6042 -18.3297 12.8178 72.3119 -9.22403 -3.83089 16.8875 2.42576 8.60793 0.507709 9.81584 -90.3397 7.2445 0.867443 -0.709684 -4.42638 0.835364 -0.747185 -26.9632 1.04062 -0.416164 -6.95057 1.04062 -0.416163 90.3642 -17.8301 -111.6 22.4976 14.6891 -43.7722 -3.25008 0.164615 -9.22531 10.0471 -4.8796 -53.9284 -90.9351 -34.5747 73.1244 -15.1718 -16.2278 -58.9356 -10.4081 -0.36792 -6.85008 -20.2463 6.71191 -45.7156 16.5076 -0.0750677 -2.16517 -7.92465 0.438492 2.23842 
30.7677 87.1123 0.34479 -5.11644 -61.3125 -7.33015 -143.306 65.8044 73.8729 -56.5752 17.7726 -12.6908 78.8916 12.8713 -0.39155 11.2048 -12.2506 5.5973 140.297 65.8055 111.525 -56.5863 -22.3983 13.4025 74.6899 -11.5514 -4.43882 16.8769 2.55129 8.27015 0.603448 10.2679 -90.3403 6.3409 1.06145 -0.706023 -5.32983 1.02934 -0.752068 -27.868 1.22455 -0.354349 -7.8553 1.22456 -0.354347 89.4423 -16.8628 -114.396 18.5713 17.7624 -47.452 -3.11738 3.79888 -4.93751 9.44398 -4.09761 -49.0458 -90.5076 -31.4715 72.8625 -19.993 -17.821 -68.4461 -8.88322 1.25277 -2.36468 -18.6766 5.59408 -42.4034 19.2806 -0.270086 -1.4701 -7.71604 0.135756 1.24162 
30.5413 82.6343 -1.06721 -1.88424 -60.0632 -5.10928 -121.237 69.6576 55.0045 -65.2644 23.8518 -13.2475 80.1827 14.2681 -0.00259281 8.18847 -13.069 4.13913 119.251 70.614 129.576 -67.4875 -25.1072 11.5309 77.6652 -14.1289 -4.34278 16.5324 2.84901 7.82719 0.613098 10.713 -90.3277 5.45044 1.08885 -0.66892 -6.22024 1.05835 -0.716201 -28.7587 1.23953 -0.310718 -8.746 1.23954 -0.310715 90.3385 -14.3581 -113.772 15.451 20.5925 -49.1178 -3.21808 1.36437 -4.92031 10.6567 -4.37923 -47.2043 -90.314 -28.3488 72.1184 -22.7666 -19.2248 -77.2544 -7.58267 4.04393 0.155032 -21.7348 6.9437 -42.9703 19.6742 -0.950173 -1.17012 -6.64673 -0.590867 1.04957 
30.2792 77.4254 -2.37278 1.07821 -60.5471 -2.87595 -98.9649 70.0388 35.0627 -75.3642 28.5776 -11.4573 82.542 16.4557 0.432123 6.17639 -13.9758 3.70495 94.0851 71.0482 151.116 -79.1172 -27.4877 8.71779 80.8906 -16.9514 -4.20364 16.2785 2.84091 8.12718 0.579854 11.1539 -90.3132 4.5685 1.0307 -0.624391 -7.10221 1.00222 -0.669136 -29.6403 1.17069 -0.285716 -9.62767 1.17069 -0.285726 91.1137 -11.4573 -113.648 12.9379 22.868 -49.5142 -3.23628 0.94209 -4.91634 9.51175 -3.5588 -43.1875 -90.0839 -25.4003 71.4418 -22.1135 -20.9916 -83.6741 -6.90389 10.5097 -0.0124169 -16.2816 4.3635 -37.8137 19.5701 -1.14976 -0.665077 -5.94189 -0.910219 0.180007 
